# xmcd
#
# Track frame offsets:
#	150
#	13782
#	28118
#	40964
#	51170
#	60971
#	71923
#	82372
#	92604
#	105073
#	117905
#	129572
#	141555
#	154699
#	165225
#	178154
#	188553
#	201607
#	214154
#	224869
#	237937
#	250023
#	264652
#	276305
#
# Disc length: 3807 seconds
#
# Revision: 0
# Processed by: cddbd v1.5.2PL0 Copyright (c) Steve Scherf et al.
# Submitted via: EasyCDDAExtractor 16.0.1.1
#
DISCID=6c0edd18
DTITLE=Wilf Carter - 50 Golden Years
DYEAR=1983
DGENRE=Country
TTITLE0=My 50 Golden Years
TTITLE1=My Swiss Moonlight Lullaby
TTITLE2=The Capture Of Albert Johnson
TTITLE3=Rattlin' Cannonball
TTITLE4=Pete Knight  The King Of The Cowboys
TTITLE5=In The Big Rock Candy Mountain
TTITLE6=You Are My Sunshine
TTITLE7=The Old Rugged Cross
TTITLE8=When It's Springtime In The Rockies
TTITLE9=Memories Of My Little Grey Haired Mother In The West
TTITLE10=My Little Yoho Lady
TTITLE11=Goodnight Irene
TTITLE12=I Want To Be A Cowgirl's Sweetheart
TTITLE13=Mockin' Bird Hill
TTITLE14=Back In The Saddle Again
TTITLE15=There's A Bluebird On Your Window Sill
TTITLE16=My Old Canadian Home
TTITLE17=Blue Canadian Rockies
TTITLE18=Walkin' The Streets Of Calgary
TTITLE19=The Fate Of Old Strawberry Roan
TTITLE20=Wasted Words  Wasted Time  Wasted Years
TTITLE21=Chinook Winds
TTITLE22=When It's Apple Blossom Time In Annapolis Valley
TTITLE23=Have A Nice Day
EXTD=
EXTT0=
EXTT1=
EXTT2=
EXTT3=
EXTT4=
EXTT5=
EXTT6=
EXTT7=
EXTT8=
EXTT9=
EXTT10=
EXTT11=
EXTT12=
EXTT13=
EXTT14=
EXTT15=
EXTT16=
EXTT17=
EXTT18=
EXTT19=
EXTT20=
EXTT21=
EXTT22=
EXTT23=
PLAYORDER=
